<svg viewBox="100 20 400 400" xmlns="http://www.w3.org/2000/svg">
  <style>
    .trail { fill: #5a5a66; }
    @media (prefers-color-scheme: dark) {
      .trail { fill: #ffffff; }
    }
  </style>
  <defs>
    <radialGradient id="gn" cx="36%" cy="30%" r="64%">
      <stop offset="0%" stop-color="#ff5252"/>
      <stop offset="40%" stop-color="#d40d0d"/>
      <stop offset="100%" stop-color="#5c0000"/>
    </radialGradient>
    <radialGradient id="ge" cx="36%" cy="30%" r="64%">
      <stop offset="0%" stop-color="#ff5a5a"/>
      <stop offset="40%" stop-color="#cc1010"/>
      <stop offset="100%" stop-color="#5a0000"/>
    </radialGradient>
  </defs>

  <!-- Trail dots — orbit around nucleus, fade through the arc -->
  <circle class="trail" cx="223" cy="95"  r="5.0" opacity=".90"/>
  <circle class="trail" cx="253" cy="74"  r="4.8" opacity=".84"/>
  <circle class="trail" cx="286" cy="59"  r="4.6" opacity=".78"/>
  <circle class="trail" cx="322" cy="50"  r="4.4" opacity=".72"/>
  <circle class="trail" cx="358" cy="50"  r="4.2" opacity=".66"/>
  <circle class="trail" cx="394" cy="59"  r="4.0" opacity=".60"/>
  <circle class="trail" cx="428" cy="74"  r="3.7" opacity=".54"/>
  <circle class="trail" cx="457" cy="95"  r="3.5" opacity=".48"/>
  <circle class="trail" cx="482" cy="122" r="3.2" opacity=".43"/>
  <circle class="trail" cx="500" cy="154" r="3.0" opacity=".38"/>
  <circle class="trail" cx="511" cy="189" r="2.8" opacity=".33"/>
  <circle class="trail" cx="515" cy="225" r="2.6" opacity=".28"/>
  <circle class="trail" cx="511" cy="261" r="2.4" opacity=".24"/>
  <circle class="trail" cx="500" cy="296" r="2.2" opacity=".20"/>
  <circle class="trail" cx="482" cy="328" r="2.0" opacity=".17"/>
  <circle class="trail" cx="457" cy="355" r="1.9" opacity=".14"/>
  <circle class="trail" cx="428" cy="377" r="1.7" opacity=".11"/>
  <circle class="trail" cx="394" cy="391" r="1.6" opacity=".09"/>
  <circle class="trail" cx="358" cy="400" r="1.4" opacity=".07"/>
  <circle class="trail" cx="322" cy="400" r="1.3" opacity=".06"/>
  <circle class="trail" cx="286" cy="391" r="1.2" opacity=".05"/>
  <circle class="trail" cx="253" cy="377" r="1.1" opacity=".04"/>
  <circle class="trail" cx="223" cy="355" r="1.0" opacity=".03"/>
  <circle class="trail" cx="198" cy="328" r="0.9" opacity=".025"/>
  <circle class="trail" cx="180" cy="296" r="0.8" opacity=".018"/>

  <!-- Nucleus -->
  <circle cx="340" cy="225" r="68" fill="url(#gn)"/>
  <ellipse cx="320" cy="208" rx="22" ry="16" fill="#ff6868" opacity=".36"/>
  <ellipse cx="312" cy="202" rx="9"  ry="7"  fill="#ffbbbb" opacity=".44"/>

  <!-- Electron -->
  <circle cx="188" cy="138" r="24" fill="url(#ge)"/>
  <ellipse cx="180" cy="131" rx="8"   ry="6"   fill="#ff7070" opacity=".36"/>
  <ellipse cx="177" cy="129" rx="3.5" ry="2.5" fill="#ffcccc" opacity=".44"/>
</svg>
